<svg width="512" height="512" viewBox="0 0 512 512" fill="none" xmlns="http://www.w3.org/2000/svg">
<g clip-path="url(#clip0_37_106)">
<rect width="512" height="512" fill="white"/>
<rect width="64" height="64" fill="black"/>
<rect x="64" width="64" height="64" fill="white"/>
<rect y="64" width="64" height="64" fill="white"/>
<rect x="64" y="64" width="64" height="64" fill="white"/>
<rect x="448" width="64" height="64" fill="black"/>
<rect x="384" width="64" height="64" fill="white"/>
<rect x="384" y="64" width="64" height="64" fill="white"/>
<rect x="448" y="64" width="64" height="64" fill="white"/>
<rect x="128" width="64" height="64" fill="#FFA347"/>
<rect x="128" y="64" width="64" height="64" fill="#FFA347"/>
<rect y="128" width="64" height="64" fill="#FF8000"/>
<rect x="64" y="128" width="64" height="64" fill="#FF8000"/>
<rect x="384" y="128" width="64" height="64" fill="#FF8000"/>
<rect x="448" y="128" width="64" height="64" fill="#FF8000"/>
<rect x="128" y="128" width="64" height="64" fill="#FFA347"/>
<rect x="192" width="64" height="64" fill="#FFA347"/>
<rect x="192" y="64" width="64" height="64" fill="#FFA347"/>
<rect x="192" y="128" width="64" height="64" fill="#FFA347"/>
<rect y="192" width="64" height="64" fill="#FFA347"/>
<rect x="64" y="384" width="64" height="64" fill="#FFA347"/>
<rect y="256" width="64" height="64" fill="#FFA347"/>
<rect x="384" y="384" width="64" height="64" fill="#FFA347"/>
<rect y="384" width="64" height="64" fill="#FFA347"/>
<rect x="448" y="256" width="64" height="64" fill="#FFA347"/>
<rect x="64" y="192" width="64" height="64" fill="#FFA347"/>
<rect x="384" y="192" width="64" height="64" fill="#FFA347"/>
<rect x="448" y="192" width="64" height="64" fill="#FFA347"/>
<rect x="256" width="64" height="64" fill="#FFA347"/>
<rect x="256" y="64" width="64" height="64" fill="#FFA347"/>
<rect x="256" y="128" width="64" height="64" fill="#FFA347"/>
<rect x="320" width="64" height="64" fill="#FFA347"/>
<rect x="320" y="64" width="64" height="64" fill="#FFA347"/>
<rect x="320" y="128" width="64" height="64" fill="#FFA347"/>
<rect x="128" y="192" width="64" height="64" fill="#FFA347"/>
<rect x="192" y="192" width="64" height="64" fill="#FFA347"/>
<rect x="256" y="192" width="64" height="64" fill="#FFA347"/>
<rect x="320" y="192" width="64" height="64" fill="#FFA347"/>
<rect y="448" width="64" height="64" fill="#FFA347"/>
<rect x="64" y="448" width="64" height="64" fill="#FFA347"/>
<rect x="384" y="448" width="64" height="64" fill="#FFA347"/>
<rect x="448" y="448" width="64" height="64" fill="#FFA347"/>
<rect x="128" y="448" width="64" height="64" fill="#FFA347"/>
<rect x="192" y="448" width="64" height="64" fill="#FFA347"/>
<rect x="256" y="448" width="64" height="64" fill="#FFA347"/>
<rect x="320" y="448" width="64" height="64" fill="#FFA347"/>
<rect x="448" y="384" width="64" height="64" fill="#FFA347"/>
<rect x="64" y="256" width="64" height="64" fill="#FF00FF"/>
<rect x="128" y="384" width="64" height="64" fill="#FF00FF"/>
<rect x="256" y="384" width="64" height="64" fill="#FF00FF"/>
<rect y="320" width="64" height="64" fill="#FF00FF"/>
<rect x="384" y="256" width="64" height="64" fill="#FF00FF"/>
<rect x="448" y="320" width="64" height="64" fill="#FF00FF"/>
<rect x="128" y="256" width="64" height="64" fill="#FF0080"/>
<rect x="320" y="384" width="64" height="64" fill="#FF0080"/>
<rect x="192" y="384" width="64" height="64" fill="#FF0080"/>
<rect x="192" y="256" width="64" height="64" fill="#FFA347"/>
<rect x="256" y="256" width="64" height="64" fill="#FFA347"/>
<rect x="320" y="256" width="64" height="64" fill="#FF0080"/>
<rect x="64" y="320" width="64" height="64" fill="#FF0080"/>
<rect x="384" y="320" width="64" height="64" fill="#FF0080"/>
<rect x="128" y="320" width="64" height="64" fill="#FF0000"/>
<rect x="192" y="320" width="64" height="64" fill="#FF0000"/>
<rect x="256" y="320" width="64" height="64" fill="#FF0000"/>
<rect x="320" y="320" width="64" height="64" fill="#FF0000"/>
</g>
<defs>
<clipPath id="clip0_37_106">
<rect width="512" height="512" fill="white"/>
</clipPath>
</defs>
</svg>
